<svg width="24" height="24" viewBox="0 0 24 24" fill="none" xmlns="http://www.w3.org/2000/svg">
<path fill-rule="evenodd" clip-rule="evenodd" d="M7.36543 18.033L5.92557 9.95028C5.79006 9.13885 6.19275 8.37834 6.92929 7.82368L6.26105 7.26172C3.88956 7.26172 2.04659 8.67084 2.31509 10.2788L3.61011 18.0338C3.95654 20.1084 6.52912 21.6753 9.58889 21.6753H13.3444L13.3442 21.6745C10.2845 21.6745 7.71192 20.1076 7.36543 18.033Z" fill="#F0F3FE"/>
<path fill-rule="evenodd" clip-rule="evenodd" d="M16.6968 22.497H7.27117C4.76382 22.497 2.65904 20.6184 2.37516 18.1273L1.49141 10.3722C1.37758 9.3736 1.69616 8.37077 2.36543 7.62089C3.03469 6.87098 3.99506 6.44091 5.00015 6.44091C5.45375 6.44091 5.82143 6.8086 5.82143 7.2622C5.82143 7.71579 5.45375 8.08348 5.00015 8.08348C4.45461 8.08348 3.95412 8.30761 3.59091 8.71464C3.22765 9.12163 3.06163 9.64425 3.12339 10.1863L4.00713 17.9413C4.19636 19.6021 5.59961 20.8545 7.27113 20.8545H16.6968C18.3683 20.8545 19.7715 19.6021 19.9608 17.9413L20.8445 10.1863C20.9063 9.64425 20.7402 9.12159 20.377 8.7146C20.0137 8.30761 19.5132 8.08348 18.9677 8.08348C18.5142 8.08348 18.1465 7.71579 18.1465 7.2622C18.1465 6.8086 18.5142 6.44091 18.9677 6.44091C19.9729 6.44091 20.9332 6.87098 21.6024 7.62085C22.2717 8.37073 22.5903 9.37356 22.4765 10.3722L21.5927 18.1273C21.309 20.6184 19.2042 22.497 16.6968 22.497ZM8.98951 13.1349V6.11292C8.98951 4.46 10.3343 3.11523 11.9872 3.11523C13.6401 3.11523 14.9849 4.46 14.9849 6.11292V6.44143H11.4534C10.9998 6.44143 10.6321 6.80912 10.6321 7.26272C10.6321 7.71631 10.9998 8.084 11.4534 8.084H15.8062C16.2598 8.084 16.6275 7.71631 16.6275 7.26272V6.11292C16.6275 3.55424 14.5459 1.47266 11.9872 1.47266C9.42853 1.47266 7.34694 3.55424 7.34694 6.11292V13.1349C7.34694 13.5885 7.71463 13.9562 8.16822 13.9562C8.62182 13.9562 8.98951 13.5885 8.98951 13.1349Z" fill="#002DBB"/>
<path fill-rule="evenodd" clip-rule="evenodd" d="M12.5618 12.3555C13.1287 12.3555 13.5884 12.8151 13.5884 13.3821C13.5884 13.9491 13.1287 14.4087 12.5618 14.4087C11.9948 14.4087 11.5352 13.9491 11.5352 13.3821C11.5352 12.8151 11.9948 12.3555 12.5618 12.3555ZM16.0112 18.0222C16.0112 18.5892 16.4708 19.0488 17.0378 19.0488C17.6047 19.0488 18.0644 18.5892 18.0644 18.0222C18.0644 17.4553 17.6047 16.9956 17.0378 16.9956C16.4708 16.9956 16.0112 17.4553 16.0112 18.0222ZM12.9902 18.7962L17.8357 13.7453C18.1497 13.418 18.139 12.8981 17.8116 12.5841C17.4843 12.2701 16.9644 12.2809 16.6504 12.6082L11.8048 17.6591C11.4909 17.9864 11.5016 18.5063 11.8289 18.8203C11.9882 18.9731 12.1929 19.0489 12.3974 19.0489C12.6133 19.0489 12.8289 18.9643 12.9902 18.7962Z" fill="#00D2A0"/>
</svg>
