<svg width="44" height="23" viewBox="0 0 44 23" fill="none" xmlns="http://www.w3.org/2000/svg">
<path fill-rule="evenodd" clip-rule="evenodd" d="M0.878696 8.96891L8.96892 0.87868C9.53153 0.316071 10.2946 0 11.0902 0H40.3476C42.0045 0 43.3476 1.34315 43.3476 3V20C43.3476 21.6569 42.0045 23 40.3476 23H11.1673C10.3264 23 9.52408 22.6471 8.95585 22.0272L0.788554 13.1174C-0.296778 11.9334 -0.257041 10.1046 0.878696 8.96891ZM5.8476 13C6.95217 13 7.8476 12.1046 7.8476 11C7.8476 9.89543 6.95217 9 5.8476 9C4.74303 9 3.8476 9.89543 3.8476 11C3.8476 12.1046 4.74303 13 5.8476 13Z" fill="#EE3D96"/>
</svg>
