<svg width="16" height="17" viewBox="0 0 16 17" fill="none" xmlns="http://www.w3.org/2000/svg">
<path d="M11.886 1.44075C13.5729 1.53998 14.9186 2.88573 15.0179 4.57259L15.2797 9.02475C15.3357 9.97523 14.9824 10.9043 14.3092 11.5775L11.8561 14.0306C10.5544 15.3323 8.44383 15.3323 7.14208 14.0306L2.42803 9.31653C1.12629 8.01478 1.12629 5.90423 2.42803 4.60248L4.8811 2.14942C5.55435 1.47616 6.48338 1.12295 7.43386 1.17886L11.886 1.44075ZM13.6868 4.65089C13.6273 3.63877 12.8198 2.83132 11.8077 2.77178L7.35556 2.50989C6.78528 2.47635 6.22786 2.68828 5.82391 3.09223L3.37084 5.54529C2.58979 6.32634 2.58979 7.59267 3.37084 8.37372L8.08489 13.0878C8.86594 13.8688 10.1323 13.8688 10.9133 13.0878L13.3664 10.6347C13.7703 10.2307 13.9823 9.67333 13.9487 9.10304L13.6868 4.65089ZM11.8561 4.60248C12.6372 5.38353 12.6372 6.64986 11.8561 7.43091C11.0751 8.21196 9.80875 8.21196 9.0277 7.43091C8.24665 6.64986 8.24665 5.38353 9.0277 4.60248C9.80875 3.82143 11.0751 3.82143 11.8561 4.60248ZM10.9133 5.54529C10.653 5.28494 10.2309 5.28494 9.97051 5.54529C9.71016 5.80564 9.71016 6.22775 9.97051 6.4881C10.2309 6.74845 10.653 6.74845 10.9133 6.4881C11.1737 6.22775 11.1737 5.80564 10.9133 5.54529Z" fill="#002DBB"/>
</svg>
