<svg width="33" height="32" viewBox="0 0 33 32" fill="none" xmlns="http://www.w3.org/2000/svg">
<rect x="0.5" width="32" height="32" rx="16" fill="#F0F3FE"/>
<path d="M18.3546 9.18271C18.5088 9.08428 18.6973 8.99933 18.8825 9.05329C19.0469 9.11563 19.1038 9.30813 19.0998 9.46928C19.1005 11.4796 19.1002 13.4899 19.0998 15.5002C21.0015 15.5002 22.9031 15.4991 24.8048 15.5006C24.9565 15.4998 25.1391 15.5509 25.1989 15.7062C25.2616 15.8907 25.1665 16.0784 25.0826 16.2392C24.5846 17.1558 24.0643 18.0603 23.5364 18.9597C23.3796 19.1687 23.1729 19.3633 22.9123 19.4264C22.6953 19.4785 22.4707 19.4767 22.2494 19.48C21.6183 19.4822 20.9876 19.4807 20.3565 19.4811C20.082 19.48 19.7732 19.4928 19.5566 19.6842C19.3765 19.8563 19.3988 20.1344 19.4691 20.3525C19.6226 20.818 19.9154 21.2187 20.1319 21.6544C19.9088 21.5049 19.693 21.3445 19.487 21.1724C18.8461 20.6055 18.2594 19.9758 17.7636 19.2773C16.2765 17.2163 15.5072 14.6945 15.3672 12.1708C15.3428 11.6174 15.5692 11.0118 16.0643 10.7213C16.8281 10.2087 17.5915 9.69605 18.3546 9.18271Z" fill="#00C89F"/>
<path d="M8.05926 13.2134C8.13801 13.0482 8.33671 12.9972 8.50478 13.0001C9.65942 13.0005 10.8141 13.0001 11.9687 13.0005C12.1688 13.0045 12.3796 13.0125 12.5597 13.1102C12.7431 13.2094 12.8812 13.3694 13.0216 13.5193C13.4431 13.9987 13.8634 14.4789 14.2845 14.9583C14.3086 14.9835 14.3516 15.0396 14.3851 14.9911C14.617 14.7399 14.8365 14.477 15.0669 14.224C15.2594 15.4505 15.7337 16.6219 16.375 17.6806C17.1921 19.0187 18.2658 20.193 19.4871 21.1723C19.6931 21.3443 19.9089 21.5048 20.1321 21.6542C20.2713 21.8063 20.4044 21.9645 20.5382 22.1213C20.6388 22.2379 20.7074 22.4067 20.6443 22.5573C20.5754 22.7068 20.3993 22.7677 20.2447 22.7655C19.0784 22.7666 17.9121 22.7655 16.7462 22.7662C16.5504 22.7662 16.3451 22.7607 16.1665 22.6711C15.9791 22.5741 15.8351 22.4155 15.694 22.2624C15.2795 21.7902 14.8646 21.3181 14.4511 20.8449C14.4198 20.8073 14.3819 20.7763 14.3414 20.7497C13.9017 21.2419 13.4711 21.7425 13.0329 22.2361C12.8893 22.3958 12.742 22.5606 12.5509 22.6649C12.373 22.7582 12.1674 22.7662 11.9712 22.7662C10.8038 22.7655 9.63645 22.7666 8.46942 22.7658C8.30171 22.7706 8.10228 22.6991 8.04942 22.5245C7.99838 22.3462 8.10666 22.1807 8.22114 22.0553C9.43192 20.6629 10.6445 19.272 11.8619 17.8855C10.6427 16.4815 9.4115 15.0881 8.19452 13.6823C8.08077 13.559 7.994 13.3811 8.05926 13.2134Z" fill="#002CBA"/>
</svg>
